<svg height="51px" viewBox="-58 -17 551 551.99926" width="43px" xmlns="http://www.w3.org/2000/svg"><path fill="#e14087" d="m333.0625 211.960938c-1.285156 0-2.601562-.292969-3.832031-.914063-4.199219-2.121094-5.882813-7.242187-3.757813-11.441406l26.679688-52.8125-56.855469-56.855469-31.226563 19.578125c-3.980468 2.515625-9.234374 1.292969-11.730468-2.683594-2.503906-3.984375-1.296875-9.238281 2.6875-11.730469l36.964844-23.191406c3.363281-2.125 7.726562-1.632812 10.542968 1.1875l66.015625 66.011719c2.601563 2.601563 3.234375 6.578125 1.578125 9.859375l-29.460937 58.316406c-1.488281 2.960938-4.496094 4.675782-7.605469 4.675782zm0 0"/><path fill="#e14087" d="m362.535156 153.648438c-2.242187 0-4.417968-.882813-6.023437-2.496094l-66.007813-66.011719c-1.839844-1.824219-2.738281-4.398437-2.449218-6.976563.304687-2.574218 1.746093-4.878906 3.941406-6.25l36.878906-23.132812c3.351562-2.117188 7.742188-1.621094 10.542969 1.191406l49.273437 49.285156c2.601563 2.601563 3.238282 6.574219 1.578125 9.859376l-20.140625 39.863281c-1.226562 2.4375-3.554687 4.132812-6.25 4.566406-.449218.066406-.894531.101563-1.34375.101563zm-52.4375-72.988282 50.144532 50.136719 12.050781-23.863281-40.121094-40.128906zm0 0"/><path fill="#e14087" d="m382.671875 113.785156c-2.238281 0-4.414063-.882812-6.019531-2.496094l-49.273438-49.277343c-1.835937-1.828125-2.734375-4.402344-2.445312-6.976563.300781-2.578125 1.75-4.882812 3.945312-6.253906l36.867188-23.125c3.355468-2.121094 7.730468-1.636719 10.542968 1.191406l32.542969 32.535156c2.601563 2.601563 3.238281 6.578126 1.582031 9.863282l-20.144531 39.867187c-1.226562 2.441407-3.554687 4.132813-6.25 4.566407-.445312.070312-.898437.105468-1.347656.105468zm-35.691406-56.257812 33.394531 33.40625 12.058594-23.871094-23.390625-23.378906zm0 0"/><path fill="#e14087" d="m402.8125 73.917969c-2.238281 0-4.410156-.882813-6.023438-2.496094l-32.542968-32.539063c-1.828125-1.828124-2.734375-4.394531-2.441406-6.972656.292968-2.578125 1.742187-4.882812 3.941406-6.253906l35.886718-22.507812c7.78125-4.886719 17.628907-4.027344 24.433594 2.1875 6.8125 6.199218 8.597656 15.894531 4.441406 24.128906l-20.09375 39.78125c-1.234374 2.433594-3.5625 4.128906-6.257812 4.5625-.449219.074218-.894531.109375-1.34375.109375zm-18.96875-39.511719 16.671875 16.660156 14.792969-29.285156c.964844-1.910156-.035156-3.242188-.714844-3.867188-.824219-.753906-2.179688-1.449218-3.917969-.347656zm39.066406-8.785156h.082032zm0 0"/><path fill="#e14087" d="m66.8125 250.566406c-2.394531 0-4.777344-1.019531-6.46875-2.976562-27.0625-31.628906-38.097656-60.535156-32.785156-85.90625 5.851562-27.921875 29.992187-44.855469 49.21875-54.144532 4.230468-2.035156 9.320312-.261718 11.367187 3.964844 2.046875 4.234375.273438 9.324219-3.96875 11.367188-15.773437 7.625-35.519531 21.15625-39.945312 42.300781-4.175781 19.929687 5.59375 43.933594 29.054687 71.34375 3.058594 3.578125 2.632813 8.945313-.9375 12.003906-1.601562 1.375-3.570312 2.046875-5.535156 2.046875zm0 0"/><path fill="#e14087" d="m19.875 292.058594c-3.074219 0-6.042969-1.671875-7.566406-4.589844-19.738282-37.984375-12.1875-72.015625 21.253906-95.8125 3.84375-2.71875 9.164062-1.820312 11.871094 1.996094 2.730468 3.832031 1.839844 9.144531-1.996094 11.871094-26.78125 19.0625-32.019531 43.300781-16.015625 74.09375 2.164063 4.175781.542969 9.316406-3.628906 11.484374-1.257813.648438-2.597657.957032-3.917969.957032zm0 0"/><path fill="#e14087" d="m66.828125 411.25c-1.414063 0-2.824219-.34375-4.105469-1.050781-43.105468-23.753907-64.960937-50.578125-64.960937-79.738281 0-48.9375 62.308593-83.820313 64.960937-85.28125 2.632813-1.449219 5.835938-1.394532 8.4375.125 2.597656 1.539062 4.183594 4.320312 4.183594 7.332031v150.101562c0 3.011719-1.585938 5.796875-4.183594 7.332031-1.335937.78125-2.832031 1.179688-4.332031 1.179688zm-8.511719-142.988281c-16.5625 11.789062-43.535156 35.15625-43.519531 62.234375.019531 19.769531 14.644531 39.019531 43.519531 57.339844zm0 0"/><path fill="#e14087" d="m115.789062 502.957031c-.882812 0-1.78125-.132812-2.660156-.425781-89.027344-29.332031-87.898437-82.648438-79.296875-111.816406 1.320313-4.507813 6.050781-7.136719 10.566407-5.761719 4.511718 1.328125 7.09375 6.0625 5.761718 10.566406-12.175781 41.332031 10.796875 71.890625 68.285156 90.832031 4.480469 1.472657 6.90625 6.285157 5.433594 10.753907-1.183594 3.582031-4.515625 5.851562-8.089844 5.851562zm0 0"/><path fill="#e14087" d="m424.4375 517.5h-298.003906c-2.835938 0-5.492188-1.414062-7.070313-3.777344-111.359375-166.042968-44.316406-347.613281-32.828125-375.664062-33.050781-72.632813 1.835938-102.191406 3.363282-103.429688 1.25-1.023437 2.777343-1.664062 4.378906-1.855468 53.007812-6.261719 89.019531 34.371093 98.742187 46.828124 125.183594 7.390626 144.839844 88.964844 147.894531 115.636719 51.785157 4.074219 92.679688 47.5625 92.679688 100.429688 0 31.4375-8.890625 56.257812-26.417969 73.75-22.070312 22.027343-52.683593 27.171875-72.269531 28.363281 24.957031 26.964844 48.472656 41.554688 64.703125 49.25 20.253906 9.585938 33.339844 30.589844 33.339844 53.5v8.453125c0 4.703125-3.804688 8.515625-8.511719 8.515625zm-293.429688-17.027344h284.917969c-.027343-16.339844-9.28125-31.273437-23.597656-38.0625-20.347656-9.636718-51.136719-29.136718-82.335937-67.359375-2.007813-2.460937-2.488282-5.835937-1.230469-8.753906 1.257812-2.917969 4.035156-4.886719 7.203125-5.121094.914062-.0625 2.4375-.058593 4.5625-.074219 12.707031.011719 50.746094.09375 74.621094-23.734374 14.210937-14.1875 21.417968-34.941407 21.417968-61.699219 0-46.160157-37.5-83.707031-83.601562-83.707031-2.28125 0-4.476563-.921876-6.082032-2.558594-1.59375-1.632813-2.476562-3.84375-2.425781-6.128906.058594-4.082032-.078125-100.679688-136.265625-106.871094-2.65625-.128906-5.105468-1.488282-6.621094-3.675782-.34375-.476562-33.136718-47.027343-82.441406-43.320312-5.347656 6.167969-21.292968 30.832031 4.414063 84.828125 1.082031 2.269531 1.101562 4.914063.050781 7.199219-.859375 1.878906-83.90625 188.5 27.414062 359.039062zm0 0"/><path fill="#e14087" d="m230.847656 258.769531c-24.910156 0-45.171875-20.261719-45.171875-45.171875 0-4.707031 3.804688-8.515625 8.511719-8.515625s8.515625 3.808594 8.515625 8.515625c0 15.511719 12.632813 28.144532 28.144531 28.144532 15.527344 0 28.15625-12.632813 28.15625-28.144532 0-4.707031 3.8125-8.515625 8.515625-8.515625 4.707031 0 8.511719 3.808594 8.511719 8.515625 0 24.910156-20.269531 45.171875-45.183594 45.171875zm0 0"/><path fill="#e14087" d="m157.519531 114.488281c-3.472656 0-6.742187-2.148437-8-5.609375-4.222656-11.605468-9.882812-18.957031-16.835937-21.851562-7.148438-2.976563-13.746094-.207032-13.808594-.183594-4.257812 1.996094-9.320312.125-11.300781-4.148438-1.980469-4.265624-.117188-9.328124 4.148437-11.300781 1.339844-.628906 13.5-5.894531 27.503906-.09375 11.527344 4.800781 20.375 15.484375 26.292969 31.757813 1.613281 4.414062-.660156 9.304687-5.089843 10.90625-.957032.355468-1.945313.523437-2.910157.523437zm0 0"/></svg>